<mxfile host="app.diagrams.net" agent="Mozilla/5.0 (Windows NT 10.0; Win64; x64) AppleWebKit/537.36 (KHTML, like Gecko) Chrome/137.0.0.0 Safari/537.36" version="27.1.6">
  <diagram name="Страница — 1" id="CRR_TSwajt2AXRb8-_pn">
    <mxGraphModel dx="1242" dy="597" grid="1" gridSize="10" guides="1" tooltips="1" connect="1" arrows="1" fold="1" page="1" pageScale="1" pageWidth="1169" pageHeight="827" math="0" shadow="0">
      <root>
        <mxCell id="0" />
        <mxCell id="1" parent="0" />
        <mxCell id="8eRpw2emNFx5K1nl7izb-1" value="&lt;b&gt;&lt;font style=&quot;font-size: 16px;&quot;&gt;sales_fact (Факт продажи)&lt;/font&gt;&lt;/b&gt;" style="swimlane;childLayout=stackLayout;horizontal=1;startSize=40;horizontalStack=0;rounded=1;fontSize=14;fontStyle=0;strokeWidth=2;resizeParent=0;resizeLast=1;shadow=0;dashed=0;align=center;arcSize=20;whiteSpace=wrap;html=1;container=0;strokeColor=#1fd195;" vertex="1" parent="1">
          <mxGeometry x="429" y="170" width="310" height="430" as="geometry" />
        </mxCell>
        <mxCell id="8eRpw2emNFx5K1nl7izb-2" value="&lt;div style=&quot;text-align: right;&quot;&gt;&lt;b style=&quot;background-color: initial; font-size: 14px; text-align: left; color: light-dark(rgb(0, 0, 0), rgb(255, 255, 255));&quot;&gt;&lt;u&gt;invoice_id:&lt;/u&gt;&amp;nbsp; &amp;nbsp; &amp;nbsp; &amp;nbsp; &amp;nbsp; &amp;nbsp; &amp;nbsp; &amp;nbsp; &amp;nbsp; &amp;nbsp; &amp;nbsp; &amp;nbsp; &amp;nbsp; &amp;nbsp; &amp;nbsp; &amp;nbsp; &amp;nbsp; &amp;nbsp; &amp;nbsp; &amp;nbsp; &amp;nbsp; &amp;nbsp;string&amp;nbsp; &amp;nbsp; &amp;nbsp;&lt;/b&gt;&lt;/div&gt;&lt;div style=&quot;text-align: right;&quot;&gt;&lt;font style=&quot;font-size: 14px;&quot;&gt;&lt;div style=&quot;font-size: 12px; text-align: left;&quot;&gt;&lt;table style=&quot;width: 180pt;&quot; width=&quot;240&quot; cellspacing=&quot;0&quot; cellpadding=&quot;0&quot; border=&quot;0&quot;&gt;&lt;colgroup&gt;&lt;col style=&quot;width: 114pt;&quot; width=&quot;152&quot;&gt;&lt;/colgroup&gt;&lt;colgroup&gt;&lt;col style=&quot;width: 66pt;&quot; width=&quot;88&quot;&gt;&lt;/colgroup&gt;&lt;tbody&gt;&lt;tr style=&quot;height: 28.5pt;&quot; height=&quot;38&quot;&gt;&lt;td style=&quot;height: 28.5pt; width: 114pt;&quot; width=&quot;152&quot; class=&quot;xl66&quot; height=&quot;38&quot;&gt;&lt;b&gt;&lt;font style=&quot;font-size: 14px;&quot;&gt;&lt;u&gt;gender_id&lt;/u&gt;&lt;/font&gt;&lt;/b&gt;&lt;/td&gt;&lt;td style=&quot;border-left: none; width: 66pt;&quot; width=&quot;88&quot; class=&quot;xl66&quot;&gt;&lt;b&gt;&lt;font style=&quot;font-size: 14px;&quot;&gt;integer&lt;/font&gt;&lt;/b&gt;&lt;/td&gt;&lt;/tr&gt;&lt;tr style=&quot;height: 14.25pt;&quot; height=&quot;19&quot;&gt;&lt;td style=&quot;height: 14.25pt; border-top: none;&quot; class=&quot;xl66&quot; height=&quot;19&quot;&gt;&lt;b&gt;&lt;font style=&quot;font-size: 14px;&quot;&gt;&lt;u&gt;store_id&amp;nbsp;&lt;/u&gt;&amp;nbsp;&amp;nbsp; &amp;nbsp; &amp;nbsp; &amp;nbsp; &amp;nbsp; &amp;nbsp; &amp;nbsp; &amp;nbsp; &amp;nbsp; &amp;nbsp; &amp;nbsp; &amp;nbsp; &amp;nbsp; &amp;nbsp; &amp;nbsp; &amp;nbsp; &amp;nbsp; &amp;nbsp; &amp;nbsp; &amp;nbsp; &amp;nbsp; &amp;nbsp;&lt;/font&gt;&lt;/b&gt;&lt;/td&gt;&lt;td style=&quot;border-top: none; border-left: none;&quot; class=&quot;xl66&quot;&gt;&lt;b&gt;&lt;font style=&quot;font-size: 14px;&quot;&gt;integer&lt;/font&gt;&lt;/b&gt;&lt;/td&gt;&lt;/tr&gt;&lt;tr style=&quot;height: 28.5pt;&quot; height=&quot;38&quot;&gt;&lt;td style=&quot;height: 28.5pt; border-top: none;&quot; class=&quot;xl66&quot; height=&quot;38&quot;&gt;&lt;b&gt;&lt;font style=&quot;font-size: 14px;&quot;&gt;&lt;u&gt;product_id&lt;/u&gt;&lt;/font&gt;&lt;/b&gt;&lt;/td&gt;&lt;td style=&quot;border-top: none; border-left: none;&quot; class=&quot;xl66&quot;&gt;&lt;b&gt;&lt;font style=&quot;font-size: 14px;&quot;&gt;integer&lt;/font&gt;&lt;/b&gt;&lt;/td&gt;&lt;/tr&gt;&lt;tr style=&quot;height: 28.5pt;&quot; height=&quot;38&quot;&gt;&lt;td style=&quot;height: 28.5pt; border-top: none;&quot; class=&quot;xl66&quot; height=&quot;38&quot;&gt;&lt;b&gt;&lt;font style=&quot;font-size: 14px;&quot;&gt;&lt;u&gt;payment_id&lt;/u&gt;&lt;/font&gt;&lt;/b&gt;&lt;/td&gt;&lt;td style=&quot;border-top: none; border-left: none;&quot; class=&quot;xl66&quot;&gt;&lt;b&gt;&lt;font style=&quot;font-size: 14px;&quot;&gt;integer&lt;/font&gt;&lt;/b&gt;&lt;/td&gt;&lt;/tr&gt;&lt;/tbody&gt;&lt;/table&gt;&lt;/div&gt;&lt;/font&gt;&lt;/div&gt;&lt;div style=&quot;text-align: right;&quot;&gt;&lt;font style=&quot;font-size: 14px;&quot;&gt;&lt;table style=&quot;font-size: 12px; text-align: left; width: 180pt;&quot; width=&quot;240&quot; cellspacing=&quot;0&quot; cellpadding=&quot;0&quot; border=&quot;0&quot;&gt;&lt;tbody&gt;&lt;tr style=&quot;height: 28.5pt;&quot; height=&quot;38&quot;&gt;&lt;td style=&quot;height: 28.5pt; border-top: none;&quot; class=&quot;xl66&quot; height=&quot;38&quot;&gt;&lt;b&gt;&lt;font style=&quot;font-size: 14px;&quot;&gt;&lt;u&gt;customer_id&lt;/u&gt;&amp;nbsp; &amp;nbsp; &amp;nbsp; &amp;nbsp; &amp;nbsp; &amp;nbsp; &amp;nbsp; &amp;nbsp; &amp;nbsp; &amp;nbsp; &amp;nbsp; &amp;nbsp; &amp;nbsp; &amp;nbsp; &amp;nbsp; &amp;nbsp; &amp;nbsp; &amp;nbsp; &amp;nbsp;&amp;nbsp;&lt;/font&gt;&lt;/b&gt;&lt;/td&gt;&lt;td style=&quot;border-top: none; border-left: none;&quot; class=&quot;xl66&quot;&gt;&lt;b&gt;&lt;font style=&quot;font-size: 14px;&quot;&gt;integer&lt;/font&gt;&lt;/b&gt;&lt;/td&gt;&lt;/tr&gt;&lt;tr style=&quot;height: 28.5pt;&quot; height=&quot;38&quot;&gt;&lt;td style=&quot;height: 28.5pt; border-top: none;&quot; class=&quot;xl66&quot; height=&quot;38&quot;&gt;&lt;b&gt;&lt;font style=&quot;font-size: 14px;&quot;&gt;&lt;u&gt;month_id&lt;/u&gt;&lt;/font&gt;&lt;/b&gt;&lt;/td&gt;&lt;td style=&quot;border-top: none; border-left: none;&quot; class=&quot;xl66&quot;&gt;&lt;b&gt;&lt;font style=&quot;font-size: 14px;&quot;&gt;integer&lt;/font&gt;&lt;/b&gt;&lt;/td&gt;&lt;/tr&gt;&lt;/tbody&gt;&lt;/table&gt;&lt;br&gt;&lt;/font&gt;&lt;/div&gt;&lt;div style=&quot;text-align: right;&quot;&gt;&lt;font style=&quot;font-size: 14px;&quot;&gt;&lt;table style=&quot;font-size: 12px; text-align: left; width: 180pt;&quot; width=&quot;240&quot; cellspacing=&quot;0&quot; cellpadding=&quot;0&quot; border=&quot;0&quot;&gt;&lt;tbody&gt;&lt;tr style=&quot;height: 14.25pt;&quot; height=&quot;19&quot;&gt;&lt;td style=&quot;height: 14.25pt; border-top: none;&quot; class=&quot;xl66&quot; height=&quot;19&quot;&gt;&lt;b&gt;&lt;font style=&quot;font-size: 14px;&quot;&gt;quantity&amp;nbsp; &amp;nbsp; &amp;nbsp; &amp;nbsp; &amp;nbsp; &amp;nbsp; &amp;nbsp; &amp;nbsp; &amp;nbsp; &amp;nbsp; &amp;nbsp; &amp;nbsp; &amp;nbsp; &amp;nbsp; &amp;nbsp; &amp;nbsp; &amp;nbsp; &amp;nbsp; &amp;nbsp; &amp;nbsp; &amp;nbsp; &amp;nbsp; &amp;nbsp;&amp;nbsp;&lt;/font&gt;&lt;/b&gt;&lt;/td&gt;&lt;td style=&quot;border-top: none; border-left: none;&quot; class=&quot;xl66&quot;&gt;&lt;b&gt;&lt;font style=&quot;font-size: 14px;&quot;&gt;integer&lt;/font&gt;&lt;/b&gt;&lt;/td&gt;&lt;/tr&gt;&lt;tr style=&quot;height: 14.25pt;&quot; height=&quot;19&quot;&gt;&lt;td style=&quot;height: 14.25pt; border-top: none;&quot; class=&quot;xl66&quot; height=&quot;19&quot;&gt;&lt;b&gt;&lt;font style=&quot;font-size: 14px;&quot;&gt;tax&lt;/font&gt;&lt;/b&gt;&lt;/td&gt;&lt;td style=&quot;border-top: none; border-left: none;&quot; class=&quot;xl66&quot;&gt;&lt;b&gt;&lt;font style=&quot;font-size: 14px;&quot;&gt;float&lt;/font&gt;&lt;/b&gt;&lt;/td&gt;&lt;/tr&gt;&lt;tr style=&quot;height: 14.25pt;&quot; height=&quot;19&quot;&gt;&lt;td style=&quot;height: 14.25pt; border-top: none;&quot; class=&quot;xl66&quot; height=&quot;19&quot;&gt;&lt;b&gt;&lt;font style=&quot;font-size: 14px;&quot;&gt;total&lt;/font&gt;&lt;/b&gt;&lt;/td&gt;&lt;td style=&quot;border-top: none; border-left: none;&quot; class=&quot;xl66&quot;&gt;&lt;b&gt;&lt;font style=&quot;font-size: 14px;&quot;&gt;float&lt;/font&gt;&lt;/b&gt;&lt;/td&gt;&lt;/tr&gt;&lt;tr style=&quot;height: 14.25pt;&quot; height=&quot;19&quot;&gt;&lt;td style=&quot;height: 14.25pt; border-top: none;&quot; class=&quot;xl66&quot; height=&quot;19&quot;&gt;&lt;b&gt;&lt;font style=&quot;font-size: 14px;&quot;&gt;cogs&lt;/font&gt;&lt;/b&gt;&lt;/td&gt;&lt;td style=&quot;border-top: none; border-left: none;&quot; class=&quot;xl66&quot;&gt;&lt;b&gt;&lt;font style=&quot;font-size: 14px;&quot;&gt;float&lt;/font&gt;&lt;/b&gt;&lt;/td&gt;&lt;/tr&gt;&lt;tr style=&quot;height: 14.25pt;&quot; height=&quot;19&quot;&gt;&lt;td style=&quot;height: 14.25pt; border-top: none;&quot; class=&quot;xl66&quot; height=&quot;19&quot;&gt;&lt;b&gt;&lt;font style=&quot;font-size: 14px;&quot;&gt;gross_income&lt;/font&gt;&lt;/b&gt;&lt;/td&gt;&lt;td style=&quot;border-top: none; border-left: none;&quot; class=&quot;xl66&quot;&gt;&lt;b&gt;&lt;font style=&quot;font-size: 14px;&quot;&gt;float&lt;/font&gt;&lt;/b&gt;&lt;/td&gt;&lt;/tr&gt;&lt;/tbody&gt;&lt;/table&gt;&lt;/font&gt;&lt;/div&gt;&lt;div style=&quot;text-align: right;&quot;&gt;&lt;b style=&quot;font-size: 14px; background-color: transparent; color: light-dark(rgb(0, 0, 0), rgb(255, 255, 255));&quot;&gt;rating&amp;nbsp; &amp;nbsp; &amp;nbsp; &amp;nbsp; &amp;nbsp; &amp;nbsp; &amp;nbsp; &amp;nbsp; &amp;nbsp; &amp;nbsp; &amp;nbsp; &amp;nbsp; &amp;nbsp; &amp;nbsp; &amp;nbsp; &amp;nbsp; &amp;nbsp; &amp;nbsp; &amp;nbsp; &amp;nbsp; &amp;nbsp; &amp;nbsp; &amp;nbsp; &amp;nbsp; &amp;nbsp; float&amp;nbsp; &amp;nbsp; &amp;nbsp; &amp;nbsp; &amp;nbsp;&lt;/b&gt;&lt;/div&gt;&lt;div style=&quot;text-align: right;&quot;&gt;&lt;font style=&quot;font-size: 14px;&quot;&gt;&lt;b&gt;datetime&amp;nbsp; &amp;nbsp; &amp;nbsp; &amp;nbsp; &amp;nbsp; &amp;nbsp; &amp;nbsp; &amp;nbsp; &amp;nbsp; &amp;nbsp; &amp;nbsp; &amp;nbsp; &amp;nbsp; &amp;nbsp; &amp;nbsp; &amp;nbsp; &amp;nbsp; &amp;nbsp; &amp;nbsp; &amp;nbsp; &amp;nbsp; &amp;nbsp; &amp;nbsp;datetime&amp;nbsp;&amp;nbsp;&lt;/b&gt;&lt;/font&gt;&lt;/div&gt;" style="align=left;strokeColor=none;fillColor=none;spacingLeft=4;fontSize=12;verticalAlign=top;resizable=0;rotatable=0;part=1;html=1;" vertex="1" parent="8eRpw2emNFx5K1nl7izb-1">
          <mxGeometry y="40" width="310" height="390" as="geometry" />
        </mxCell>
        <mxCell id="8eRpw2emNFx5K1nl7izb-3" value="&lt;span style=&quot;font-size: 16px;&quot;&gt;&lt;b&gt;customer_dim (Тип покупателя)&lt;/b&gt;&lt;/span&gt;" style="swimlane;childLayout=stackLayout;horizontal=1;startSize=40;horizontalStack=0;rounded=1;fontSize=14;fontStyle=0;strokeWidth=2;resizeParent=0;resizeLast=1;shadow=0;dashed=0;align=center;arcSize=20;whiteSpace=wrap;html=1;container=0;strokeColor=#3333FF;" vertex="1" parent="1">
          <mxGeometry x="799" y="150" width="300" height="140" as="geometry" />
        </mxCell>
        <mxCell id="8eRpw2emNFx5K1nl7izb-4" value="&lt;div style=&quot;text-align: right;&quot;&gt;&lt;b style=&quot;background-color: transparent; color: light-dark(rgb(0, 0, 0), rgb(255, 255, 255)); text-align: left;&quot;&gt;&lt;font style=&quot;font-size: 14px;&quot;&gt;&lt;u&gt;customer_id&lt;/u&gt;&amp;nbsp;&lt;/font&gt;&lt;/b&gt;&lt;span style=&quot;font-size: 14px; background-color: initial;&quot;&gt;&lt;b&gt;:&amp;nbsp; &amp;nbsp; &amp;nbsp; &amp;nbsp; &amp;nbsp; &amp;nbsp; &amp;nbsp; &amp;nbsp; &amp;nbsp; &amp;nbsp; &amp;nbsp; &amp;nbsp; &amp;nbsp; &amp;nbsp; &amp;nbsp; &amp;nbsp; &amp;nbsp; &amp;nbsp; &amp;nbsp; &amp;nbsp; &amp;nbsp; &amp;nbsp; int&amp;nbsp;&lt;/b&gt;&lt;/span&gt;&lt;/div&gt;&lt;div style=&quot;text-align: right;&quot;&gt;&lt;font style=&quot;&quot;&gt;&lt;span style=&quot;background-color: transparent; text-align: left; font-size: 14px;&quot;&gt;&lt;b&gt;customer_type&lt;/b&gt;&lt;/span&gt;&lt;b style=&quot;font-size: 14px;&quot;&gt;:&amp;nbsp; &amp;nbsp; &amp;nbsp; &amp;nbsp; &amp;nbsp; &amp;nbsp; &amp;nbsp; &amp;nbsp; &amp;nbsp; &amp;nbsp; &amp;nbsp; &amp;nbsp; &amp;nbsp; &amp;nbsp; &amp;nbsp; &amp;nbsp; &amp;nbsp; &amp;nbsp; string&lt;/b&gt;&lt;br&gt;&lt;/font&gt;&lt;/div&gt;&lt;div style=&quot;text-align: right;&quot;&gt;&lt;font style=&quot;font-size: 14px;&quot;&gt;&lt;br&gt;&lt;/font&gt;&lt;/div&gt;&lt;div style=&quot;text-align: right;&quot;&gt;&lt;font style=&quot;font-size: 14px;&quot;&gt;&lt;b&gt;&lt;br&gt;&lt;/b&gt;&lt;/font&gt;&lt;/div&gt;" style="align=left;strokeColor=none;fillColor=none;spacingLeft=4;fontSize=12;verticalAlign=top;resizable=0;rotatable=0;part=1;html=1;" vertex="1" parent="8eRpw2emNFx5K1nl7izb-3">
          <mxGeometry y="40" width="300" height="100" as="geometry" />
        </mxCell>
        <mxCell id="8eRpw2emNFx5K1nl7izb-5" value="&lt;span style=&quot;font-size: 16px;&quot;&gt;&lt;b&gt;month_dim (Месяц)&lt;/b&gt;&lt;/span&gt;" style="swimlane;childLayout=stackLayout;horizontal=1;startSize=40;horizontalStack=0;rounded=1;fontSize=14;fontStyle=0;strokeWidth=2;resizeParent=0;resizeLast=1;shadow=0;dashed=0;align=center;arcSize=20;whiteSpace=wrap;html=1;container=0;strokeColor=#3333FF;" vertex="1" parent="1">
          <mxGeometry x="799" y="344" width="300" height="140" as="geometry" />
        </mxCell>
        <mxCell id="8eRpw2emNFx5K1nl7izb-6" value="&lt;div style=&quot;text-align: right;&quot;&gt;&lt;table style=&quot;text-align: left; width: 180pt;&quot; width=&quot;240&quot; cellspacing=&quot;0&quot; cellpadding=&quot;0&quot; border=&quot;0&quot;&gt;&lt;tbody&gt;&lt;tr&gt;&lt;td style=&quot;height: 28.5pt; border-top: none;&quot; class=&quot;xl66&quot; height=&quot;38&quot;&gt;&lt;b&gt;&lt;font style=&quot;font-size: 14px;&quot;&gt;&lt;u&gt;month_id&lt;/u&gt;&amp;nbsp; &amp;nbsp; &amp;nbsp; &amp;nbsp; &amp;nbsp; &amp;nbsp; &amp;nbsp; &amp;nbsp; &amp;nbsp; &amp;nbsp; &amp;nbsp; &amp;nbsp; &amp;nbsp; &amp;nbsp; &amp;nbsp; &amp;nbsp; &amp;nbsp; &amp;nbsp; &amp;nbsp; &amp;nbsp; &amp;nbsp; &amp;nbsp; &amp;nbsp; &amp;nbsp;&lt;/font&gt;&lt;/b&gt;&lt;/td&gt;&lt;td style=&quot;border-top: none; border-left: none;&quot; class=&quot;xl66&quot;&gt;&lt;b&gt;&lt;font style=&quot;font-size: 14px;&quot;&gt;int&amp;nbsp;&lt;br&gt;&lt;/font&gt;&lt;/b&gt;&lt;/td&gt;&lt;/tr&gt;&lt;/tbody&gt;&lt;/table&gt;&lt;span style=&quot;background-color: transparent; color: light-dark(rgb(0, 0, 0), rgb(255, 255, 255)); text-align: left; font-size: 14px;&quot;&gt;&lt;b&gt;month_name&lt;/b&gt;&lt;/span&gt;&lt;b style=&quot;background-color: transparent; color: light-dark(rgb(0, 0, 0), rgb(255, 255, 255)); font-size: 14px;&quot;&gt;&amp;nbsp; &amp;nbsp; &amp;nbsp; &amp;nbsp; &amp;nbsp; &amp;nbsp; &amp;nbsp; &amp;nbsp; &amp;nbsp; &amp;nbsp; &amp;nbsp; &amp;nbsp; &amp;nbsp; &amp;nbsp; &amp;nbsp; &amp;nbsp; &amp;nbsp; &amp;nbsp; &amp;nbsp; &amp;nbsp;string&amp;nbsp; &amp;nbsp; &amp;nbsp;&lt;/b&gt;&lt;/div&gt;&lt;div style=&quot;text-align: right;&quot;&gt;&lt;font style=&quot;&quot;&gt;&lt;span style=&quot;background-color: transparent; text-align: left; font-size: 14px;&quot;&gt;&lt;b&gt;number_of_month&lt;/b&gt;&lt;/span&gt;&lt;b style=&quot;font-size: 14px;&quot;&gt;:&amp;nbsp; &amp;nbsp; &amp;nbsp; &amp;nbsp; &amp;nbsp; &amp;nbsp; &amp;nbsp; &amp;nbsp; &amp;nbsp; &amp;nbsp; &amp;nbsp; &amp;nbsp; &amp;nbsp; &amp;nbsp; &amp;nbsp; &amp;nbsp;int&amp;nbsp; &amp;nbsp; &amp;nbsp; &amp;nbsp;&amp;nbsp;&lt;/b&gt;&lt;br&gt;&lt;/font&gt;&lt;/div&gt;&lt;div style=&quot;text-align: right;&quot;&gt;&lt;font style=&quot;&quot;&gt;&lt;span style=&quot;background-color: transparent; text-align: left; font-size: 14px;&quot;&gt;&lt;b&gt;year_of_month&lt;/b&gt;&lt;/span&gt;&lt;b style=&quot;font-size: 14px;&quot;&gt;:&amp;nbsp; &amp;nbsp; &amp;nbsp; &amp;nbsp; &amp;nbsp; &amp;nbsp; &amp;nbsp; &amp;nbsp; &amp;nbsp; &amp;nbsp; &amp;nbsp; &amp;nbsp; &amp;nbsp; &amp;nbsp; &amp;nbsp; &amp;nbsp; &amp;nbsp; &amp;nbsp; &amp;nbsp;int&amp;nbsp; &amp;nbsp; &amp;nbsp; &amp;nbsp;&amp;nbsp;&lt;/b&gt;&lt;br&gt;&lt;/font&gt;&lt;/div&gt;&lt;div style=&quot;text-align: right;&quot;&gt;&lt;font style=&quot;font-size: 14px;&quot;&gt;&lt;b&gt;&lt;br&gt;&lt;/b&gt;&lt;/font&gt;&lt;/div&gt;&lt;div style=&quot;text-align: right;&quot;&gt;&lt;font style=&quot;font-size: 14px;&quot;&gt;&lt;b&gt;&lt;br&gt;&lt;/b&gt;&lt;/font&gt;&lt;/div&gt;" style="align=left;strokeColor=none;fillColor=none;spacingLeft=4;fontSize=12;verticalAlign=top;resizable=0;rotatable=0;part=1;html=1;" vertex="1" parent="8eRpw2emNFx5K1nl7izb-5">
          <mxGeometry y="40" width="300" height="100" as="geometry" />
        </mxCell>
        <mxCell id="8eRpw2emNFx5K1nl7izb-10" value="" style="edgeStyle=entityRelationEdgeStyle;fontSize=12;html=1;endArrow=ERone;startArrow=ERoneToMany;rounded=0;exitX=1;exitY=0.25;exitDx=0;exitDy=0;startFill=0;entryX=-0.007;entryY=0.391;entryDx=0;entryDy=0;endFill=0;entryPerimeter=0;" edge="1" parent="1" source="8eRpw2emNFx5K1nl7izb-2" target="8eRpw2emNFx5K1nl7izb-4">
          <mxGeometry width="100" height="100" relative="1" as="geometry">
            <mxPoint x="639" y="437" as="sourcePoint" />
            <mxPoint x="649" y="240" as="targetPoint" />
            <Array as="points">
              <mxPoint x="479" y="322" />
              <mxPoint x="739" y="430" />
              <mxPoint x="209" y="622" />
            </Array>
          </mxGeometry>
        </mxCell>
        <mxCell id="8eRpw2emNFx5K1nl7izb-11" value="" style="edgeStyle=entityRelationEdgeStyle;fontSize=12;html=1;endArrow=ERone;startArrow=ERoneToMany;rounded=0;exitX=1;exitY=0.5;exitDx=0;exitDy=0;startFill=0;entryX=0;entryY=0.25;entryDx=0;entryDy=0;endFill=0;" edge="1" parent="1" source="8eRpw2emNFx5K1nl7izb-2" target="8eRpw2emNFx5K1nl7izb-6">
          <mxGeometry width="100" height="100" relative="1" as="geometry">
            <mxPoint x="649" y="455" as="sourcePoint" />
            <mxPoint x="797" y="329" as="targetPoint" />
            <Array as="points">
              <mxPoint x="489" y="332" />
              <mxPoint x="749" y="440" />
              <mxPoint x="219" y="632" />
            </Array>
          </mxGeometry>
        </mxCell>
        <mxCell id="8eRpw2emNFx5K1nl7izb-12" value="&lt;span style=&quot;font-size: 16px;&quot;&gt;&lt;b&gt;gender_dim (Пол покупателя)&lt;/b&gt;&lt;/span&gt;" style="swimlane;childLayout=stackLayout;horizontal=1;startSize=40;horizontalStack=0;rounded=1;fontSize=14;fontStyle=0;strokeWidth=2;resizeParent=0;resizeLast=1;shadow=0;dashed=0;align=center;arcSize=20;whiteSpace=wrap;html=1;container=0;strokeColor=#3333FF;" vertex="1" parent="1">
          <mxGeometry x="799" y="510" width="300" height="140" as="geometry" />
        </mxCell>
        <mxCell id="8eRpw2emNFx5K1nl7izb-13" value="&lt;div style=&quot;text-align: right;&quot;&gt;&lt;div&gt;&lt;b style=&quot;background-color: transparent; color: light-dark(rgb(0, 0, 0), rgb(255, 255, 255)); text-align: left;&quot;&gt;&lt;font style=&quot;font-size: 14px;&quot;&gt;&lt;u&gt;gender_id&lt;/u&gt;&amp;nbsp;&lt;/font&gt;&lt;/b&gt;&lt;span style=&quot;font-size: 14px; background-color: initial;&quot;&gt;&lt;b&gt;:&amp;nbsp; &amp;nbsp; &amp;nbsp; &amp;nbsp; &amp;nbsp; &amp;nbsp; &amp;nbsp; &amp;nbsp; &amp;nbsp; &amp;nbsp; &amp;nbsp; &amp;nbsp; &amp;nbsp; &amp;nbsp; &amp;nbsp; &amp;nbsp; &amp;nbsp; &amp;nbsp; &amp;nbsp; &amp;nbsp; &amp;nbsp; &amp;nbsp; &amp;nbsp; &amp;nbsp; &amp;nbsp;int&amp;nbsp;&lt;/b&gt;&lt;/span&gt;&lt;/div&gt;&lt;div&gt;&lt;span style=&quot;background-color: transparent; text-align: left; font-size: 14px;&quot;&gt;&lt;b&gt;gender_type&lt;/b&gt;&lt;/span&gt;&lt;b style=&quot;font-size: 14px;&quot;&gt;:&amp;nbsp; &amp;nbsp; &amp;nbsp; &amp;nbsp; &amp;nbsp; &amp;nbsp; &amp;nbsp; &amp;nbsp; &amp;nbsp; &amp;nbsp; &amp;nbsp; &amp;nbsp; &amp;nbsp; &amp;nbsp; &amp;nbsp; &amp;nbsp; &amp;nbsp; &amp;nbsp; &amp;nbsp; &amp;nbsp; &amp;nbsp;string&lt;/b&gt;&lt;/div&gt;&lt;/div&gt;" style="align=left;strokeColor=none;fillColor=none;spacingLeft=4;fontSize=12;verticalAlign=top;resizable=0;rotatable=0;part=1;html=1;" vertex="1" parent="8eRpw2emNFx5K1nl7izb-12">
          <mxGeometry y="40" width="300" height="100" as="geometry" />
        </mxCell>
        <mxCell id="8eRpw2emNFx5K1nl7izb-16" value="&lt;span style=&quot;font-size: 16px;&quot;&gt;&lt;b&gt;store_dim (Магазин)&lt;/b&gt;&lt;/span&gt;" style="swimlane;childLayout=stackLayout;horizontal=1;startSize=40;horizontalStack=0;rounded=1;fontSize=14;fontStyle=0;strokeWidth=2;resizeParent=0;resizeLast=1;shadow=0;dashed=0;align=center;arcSize=20;whiteSpace=wrap;html=1;container=0;strokeColor=#3333FF;" vertex="1" parent="1">
          <mxGeometry x="80" y="160" width="300" height="140" as="geometry" />
        </mxCell>
        <mxCell id="8eRpw2emNFx5K1nl7izb-17" value="&lt;div style=&quot;text-align: right;&quot;&gt;&lt;div&gt;&lt;b style=&quot;background-color: transparent; color: light-dark(rgb(0, 0, 0), rgb(255, 255, 255)); text-align: left;&quot;&gt;&lt;font style=&quot;font-size: 14px;&quot;&gt;&lt;u&gt;store_id&lt;/u&gt;&amp;nbsp;&lt;/font&gt;&lt;/b&gt;&lt;span style=&quot;font-size: 14px; background-color: initial;&quot;&gt;&lt;b&gt;:&amp;nbsp; &amp;nbsp; &amp;nbsp; &amp;nbsp; &amp;nbsp; &amp;nbsp; &amp;nbsp; &amp;nbsp; &amp;nbsp; &amp;nbsp; &amp;nbsp; &amp;nbsp; &amp;nbsp; &amp;nbsp; &amp;nbsp; &amp;nbsp; &amp;nbsp; &amp;nbsp; &amp;nbsp; &amp;nbsp; &amp;nbsp; &amp;nbsp; &amp;nbsp;int&amp;nbsp; &amp;nbsp; &amp;nbsp;&lt;/b&gt;&lt;/span&gt;&lt;/div&gt;&lt;div style=&quot;text-align: left;&quot;&gt;&lt;b style=&quot;font-size: 14px;&quot;&gt;branch:&amp;nbsp; &amp;nbsp; &amp;nbsp; &amp;nbsp; &amp;nbsp; &amp;nbsp; &amp;nbsp; &amp;nbsp; &amp;nbsp; &amp;nbsp; &amp;nbsp; &amp;nbsp; &amp;nbsp; &amp;nbsp; &amp;nbsp; &amp;nbsp; &amp;nbsp; &amp;nbsp; &amp;nbsp; &amp;nbsp; &amp;nbsp; &amp;nbsp; &amp;nbsp; &amp;nbsp;string&lt;/b&gt;&lt;/div&gt;&lt;div style=&quot;text-align: left;&quot;&gt;&lt;b style=&quot;background-color: transparent; color: light-dark(rgb(0, 0, 0), rgb(255, 255, 255)); font-size: 14px;&quot;&gt;city:&amp;nbsp; &amp;nbsp; &amp;nbsp; &amp;nbsp; &amp;nbsp; &amp;nbsp; &amp;nbsp; &amp;nbsp; &amp;nbsp; &amp;nbsp; &amp;nbsp; &amp;nbsp; &amp;nbsp; &amp;nbsp; &amp;nbsp; &amp;nbsp; &amp;nbsp; &amp;nbsp; &amp;nbsp; &amp;nbsp; &amp;nbsp; &amp;nbsp; &amp;nbsp; &amp;nbsp; &amp;nbsp; &amp;nbsp; &amp;nbsp;string&lt;/b&gt;&lt;/div&gt;&lt;/div&gt;" style="align=left;strokeColor=none;fillColor=none;spacingLeft=4;fontSize=12;verticalAlign=top;resizable=0;rotatable=0;part=1;html=1;" vertex="1" parent="8eRpw2emNFx5K1nl7izb-16">
          <mxGeometry y="40" width="300" height="100" as="geometry" />
        </mxCell>
        <mxCell id="8eRpw2emNFx5K1nl7izb-30" value="&lt;div style=&quot;text-align: right;&quot;&gt;&lt;br&gt;&lt;/div&gt;&lt;div style=&quot;text-align: right;&quot;&gt;&lt;font style=&quot;font-size: 14px;&quot;&gt;&lt;b&gt;&lt;br&gt;&lt;/b&gt;&lt;/font&gt;&lt;/div&gt;" style="align=left;strokeColor=none;fillColor=none;spacingLeft=4;fontSize=12;verticalAlign=top;resizable=0;rotatable=0;part=1;html=1;" vertex="1" parent="8eRpw2emNFx5K1nl7izb-16">
          <mxGeometry y="140" width="300" as="geometry" />
        </mxCell>
        <mxCell id="8eRpw2emNFx5K1nl7izb-18" value="&lt;span style=&quot;font-size: 16px;&quot;&gt;&lt;b&gt;product_dim (Продукт)&lt;/b&gt;&lt;/span&gt;" style="swimlane;childLayout=stackLayout;horizontal=1;startSize=40;horizontalStack=0;rounded=1;fontSize=14;fontStyle=0;strokeWidth=2;resizeParent=0;resizeLast=1;shadow=0;dashed=0;align=center;arcSize=20;whiteSpace=wrap;html=1;container=0;strokeColor=#3333FF;" vertex="1" parent="1">
          <mxGeometry x="80" y="344" width="300" height="140" as="geometry" />
        </mxCell>
        <mxCell id="8eRpw2emNFx5K1nl7izb-19" value="&lt;div style=&quot;text-align: right;&quot;&gt;&lt;div&gt;&lt;b style=&quot;background-color: transparent; color: light-dark(rgb(0, 0, 0), rgb(255, 255, 255)); text-align: left;&quot;&gt;&lt;font style=&quot;font-size: 14px;&quot;&gt;&lt;u&gt;product_id&lt;/u&gt;&lt;/font&gt;&lt;/b&gt;&lt;span style=&quot;font-size: 14px; background-color: initial;&quot;&gt;&lt;b&gt;:&amp;nbsp; &amp;nbsp; &amp;nbsp; &amp;nbsp; &amp;nbsp; &amp;nbsp; &amp;nbsp; &amp;nbsp; &amp;nbsp; &amp;nbsp; &amp;nbsp; &amp;nbsp; &amp;nbsp; &amp;nbsp; &amp;nbsp; &amp;nbsp; &amp;nbsp; &amp;nbsp; &amp;nbsp; &amp;nbsp; &amp;nbsp; &amp;nbsp;int&amp;nbsp; &amp;nbsp; &amp;nbsp; &amp;nbsp; &amp;nbsp; &amp;nbsp;&lt;/b&gt;&lt;/span&gt;&lt;/div&gt;&lt;div style=&quot;text-align: left;&quot;&gt;&lt;b style=&quot;font-size: 14px;&quot;&gt;product_line:&amp;nbsp; &amp;nbsp; &amp;nbsp; &amp;nbsp; &amp;nbsp; &amp;nbsp; &amp;nbsp; &amp;nbsp; &amp;nbsp; &amp;nbsp; &amp;nbsp; &amp;nbsp; &amp;nbsp; &amp;nbsp; &amp;nbsp; &amp;nbsp; &amp;nbsp; &amp;nbsp; &amp;nbsp; string&lt;/b&gt;&lt;/div&gt;&lt;div style=&quot;text-align: left;&quot;&gt;&lt;b style=&quot;background-color: transparent; color: light-dark(rgb(0, 0, 0), rgb(255, 255, 255)); font-size: 14px;&quot;&gt;unit_price:&amp;nbsp; &amp;nbsp; &amp;nbsp; &amp;nbsp; &amp;nbsp; &amp;nbsp; &amp;nbsp; &amp;nbsp; &amp;nbsp; &amp;nbsp; &amp;nbsp; &amp;nbsp; &amp;nbsp; &amp;nbsp; &amp;nbsp; &amp;nbsp; &amp;nbsp; &amp;nbsp; &amp;nbsp; &amp;nbsp; &amp;nbsp; &amp;nbsp; float&amp;nbsp;&amp;nbsp;&lt;/b&gt;&lt;/div&gt;&lt;/div&gt;" style="align=left;strokeColor=none;fillColor=none;spacingLeft=4;fontSize=12;verticalAlign=top;resizable=0;rotatable=0;part=1;html=1;" vertex="1" parent="8eRpw2emNFx5K1nl7izb-18">
          <mxGeometry y="40" width="300" height="100" as="geometry" />
        </mxCell>
        <mxCell id="8eRpw2emNFx5K1nl7izb-20" value="&lt;span style=&quot;font-size: 16px;&quot;&gt;&lt;b&gt;payment_dim (Тип оплаты)&lt;/b&gt;&lt;/span&gt;" style="swimlane;childLayout=stackLayout;horizontal=1;startSize=40;horizontalStack=0;rounded=1;fontSize=14;fontStyle=0;strokeWidth=2;resizeParent=0;resizeLast=1;shadow=0;dashed=0;align=center;arcSize=20;whiteSpace=wrap;html=1;container=0;strokeColor=#3333FF;" vertex="1" parent="1">
          <mxGeometry x="80" y="520" width="300" height="140" as="geometry" />
        </mxCell>
        <mxCell id="8eRpw2emNFx5K1nl7izb-21" value="&lt;div style=&quot;text-align: right;&quot;&gt;&lt;div&gt;&lt;b style=&quot;background-color: transparent; color: light-dark(rgb(0, 0, 0), rgb(255, 255, 255)); text-align: left;&quot;&gt;&lt;font style=&quot;font-size: 14px;&quot;&gt;&lt;u&gt;payment_id&lt;/u&gt;&lt;/font&gt;&lt;/b&gt;&lt;span style=&quot;font-size: 14px; background-color: initial;&quot;&gt;&lt;b&gt;:&amp;nbsp; &amp;nbsp; &amp;nbsp; &amp;nbsp; &amp;nbsp; &amp;nbsp; &amp;nbsp; &amp;nbsp; &amp;nbsp; &amp;nbsp; &amp;nbsp; &amp;nbsp; &amp;nbsp; &amp;nbsp; &amp;nbsp; &amp;nbsp; &amp;nbsp; &amp;nbsp; &amp;nbsp; &amp;nbsp; &amp;nbsp;int&amp;nbsp; &amp;nbsp; &amp;nbsp; &amp;nbsp; &amp;nbsp; &amp;nbsp; &amp;nbsp; &amp;nbsp;&amp;nbsp;&lt;/b&gt;&lt;/span&gt;&lt;/div&gt;&lt;div style=&quot;text-align: left;&quot;&gt;&lt;b style=&quot;font-size: 14px;&quot;&gt;payment_type:&amp;nbsp; &amp;nbsp; &amp;nbsp; &amp;nbsp; &amp;nbsp; &amp;nbsp; &amp;nbsp; &amp;nbsp; &amp;nbsp; &amp;nbsp; &amp;nbsp; &amp;nbsp; &amp;nbsp; &amp;nbsp; &amp;nbsp; &amp;nbsp; &amp;nbsp; &amp;nbsp;string&lt;br&gt;&lt;/b&gt;&lt;/div&gt;&lt;/div&gt;" style="align=left;strokeColor=none;fillColor=none;spacingLeft=4;fontSize=12;verticalAlign=top;resizable=0;rotatable=0;part=1;html=1;" vertex="1" parent="8eRpw2emNFx5K1nl7izb-20">
          <mxGeometry y="40" width="300" height="100" as="geometry" />
        </mxCell>
        <mxCell id="8eRpw2emNFx5K1nl7izb-25" value="" style="edgeStyle=entityRelationEdgeStyle;fontSize=12;html=1;endArrow=ERone;startArrow=ERoneToMany;rounded=0;exitX=1;exitY=0.75;exitDx=0;exitDy=0;startFill=0;entryX=-0.006;entryY=0.323;entryDx=0;entryDy=0;endFill=0;entryPerimeter=0;" edge="1" parent="1" source="8eRpw2emNFx5K1nl7izb-2" target="8eRpw2emNFx5K1nl7izb-13">
          <mxGeometry width="100" height="100" relative="1" as="geometry">
            <mxPoint x="740" y="590" as="sourcePoint" />
            <mxPoint x="820" y="460" as="targetPoint" />
            <Array as="points">
              <mxPoint x="489" y="417" />
              <mxPoint x="749" y="525" />
              <mxPoint x="219" y="717" />
            </Array>
          </mxGeometry>
        </mxCell>
        <mxCell id="8eRpw2emNFx5K1nl7izb-26" value="" style="edgeStyle=entityRelationEdgeStyle;fontSize=12;html=1;endArrow=ERone;startArrow=ERoneToMany;rounded=0;exitX=0;exitY=0.25;exitDx=0;exitDy=0;startFill=0;entryX=1;entryY=0.25;entryDx=0;entryDy=0;endFill=0;" edge="1" parent="1" source="8eRpw2emNFx5K1nl7izb-2" target="8eRpw2emNFx5K1nl7izb-17">
          <mxGeometry width="100" height="100" relative="1" as="geometry">
            <mxPoint x="430" y="329" as="sourcePoint" />
            <mxPoint x="487" y="150" as="targetPoint" />
            <Array as="points">
              <mxPoint x="169" y="243" />
              <mxPoint x="429" y="351" />
              <mxPoint x="-101" y="543" />
            </Array>
          </mxGeometry>
        </mxCell>
        <mxCell id="8eRpw2emNFx5K1nl7izb-28" value="" style="edgeStyle=entityRelationEdgeStyle;fontSize=12;html=1;endArrow=ERone;startArrow=ERoneToMany;rounded=0;exitX=0;exitY=0.333;exitDx=0;exitDy=0;startFill=0;entryX=0.997;entryY=0.659;entryDx=0;entryDy=0;endFill=0;exitPerimeter=0;entryPerimeter=0;" edge="1" parent="1" source="8eRpw2emNFx5K1nl7izb-2" target="8eRpw2emNFx5K1nl7izb-19">
          <mxGeometry width="100" height="100" relative="1" as="geometry">
            <mxPoint x="475" y="627" as="sourcePoint" />
            <mxPoint x="430" y="440" as="targetPoint" />
            <Array as="points">
              <mxPoint x="210" y="478" />
              <mxPoint x="470" y="586" />
              <mxPoint x="-60" y="778" />
              <mxPoint x="-40" y="610" />
            </Array>
          </mxGeometry>
        </mxCell>
        <mxCell id="8eRpw2emNFx5K1nl7izb-29" value="" style="edgeStyle=entityRelationEdgeStyle;fontSize=12;html=1;endArrow=ERone;startArrow=ERoneToMany;rounded=0;exitX=-0.004;exitY=0.786;exitDx=0;exitDy=0;startFill=0;entryX=1.005;entryY=0.388;entryDx=0;entryDy=0;endFill=0;exitPerimeter=0;entryPerimeter=0;" edge="1" parent="1" source="8eRpw2emNFx5K1nl7izb-2" target="8eRpw2emNFx5K1nl7izb-21">
          <mxGeometry width="100" height="100" relative="1" as="geometry">
            <mxPoint x="332" y="744" as="sourcePoint" />
            <mxPoint x="290" y="710" as="targetPoint" />
            <Array as="points">
              <mxPoint x="112" y="782" />
              <mxPoint x="372" y="890" />
              <mxPoint x="-158" y="1082" />
              <mxPoint x="-138" y="914" />
              <mxPoint x="-168" y="810" />
            </Array>
          </mxGeometry>
        </mxCell>
        <mxCell id="8eRpw2emNFx5K1nl7izb-31" value="&lt;font&gt;&lt;b&gt;DATA MART LAYER&lt;/b&gt;&lt;/font&gt;" style="text;whiteSpace=wrap;html=1;fontSize=18;" vertex="1" parent="1">
          <mxGeometry x="510" y="30" width="240" height="40" as="geometry" />
        </mxCell>
      </root>
    </mxGraphModel>
  </diagram>
</mxfile>
